<?xml version="1.0" encoding="utf-8"?>
<!-- Generator: Adobe Illustrator 24.1.3, SVG Export Plug-In . SVG Version: 6.00 Build 0)  -->
<svg version="1.1" id="Layer_1" xmlns="http://www.w3.org/2000/svg" xmlns:xlink="http://www.w3.org/1999/xlink" x="0px" y="0px"
	 viewBox="0 0 275.9 188.1" style="enable-background:new 0 0 275.9 188.1;" xml:space="preserve">
<style type="text/css">
	.st0{fill:#E23F88;}
</style>
<g>
	<path class="st0" d="M66.4,66.1h32.9c0.6,0,0.8,0.2,0.7,0.7l-5.2,16.8c-0.1,0.4-0.4,0.5-0.7,0.5H77.8l-5.2,17.6h15.2
		c0.6,0,0.8,0.2,0.7,0.7l-5.2,16.8c-0.1,0.4-0.4,0.5-0.7,0.5H67.1l-6.4,21.7h16c0.6,0,0.8,0.2,0.7,0.8l-5.1,16.9
		c-0.1,0.4-0.4,0.5-0.7,0.5H38.7c-0.6,0-0.8-0.2-0.7-0.8l27.8-92.2C65.9,66.2,66.1,66.1,66.4,66.1z"/>
	<path class="st0" d="M125.1,94.2c0.1-0.1,0.2-0.3,0.4-0.3h17.8c0.4,0,0.6,0.1,0.4,0.5L124.4,159c-0.1,0.2-0.3,0.4-0.4,0.4h-10.6
		c-0.4,0-0.6-0.1-0.4-0.5l14.5-48.4l-20.7,48.7c-0.1,0.1-0.3,0.3-0.4,0.3H95.1c-0.4,0-0.6-0.1-0.4-0.5l8.7-48.9l-14.9,49
		c-0.1,0.2-0.3,0.4-0.4,0.4H77.5c-0.4,0-0.6-0.1-0.4-0.5l19.4-64.5c0.1-0.2,0.3-0.4,0.4-0.4h17.8c0.4,0,0.6,0.1,0.4,0.5l-9.2,46.8
		L125.1,94.2z"/>
	<path class="st0" d="M141.7,118.8l14.8,0.1c0.5,0,1-0.1,1.5-0.2c0.4-0.1,0.8-0.4,1.2-0.9c0.4-0.4,0.7-1,1-1.8
		c0.3-0.8,0.7-1.8,1-3.2c0.6-0.7,0.9-1.4,0.9-2.1c0-0.1,0-0.2-0.1-0.4c0-0.1-0.1-0.2-0.1-0.4c0.1-0.4,0.1-0.7,0.1-0.9
		c0-0.3,0-0.6,0-0.8c0-0.7-0.1-1.1-0.4-1.3c-0.3-0.2-0.7-0.3-1.4-0.3h-0.4c-0.1,0-0.3,0-0.5-0.1c-0.2,0-0.8-0.1-1.7-0.1
		s-2.2-0.1-4-0.1c-1.8,0-4.2,0-7.4,0c-0.4,0-0.6-0.1-0.4-0.5l3.5-11.6c0.1-0.2,0.3-0.4,0.4-0.4h16.4c3.4,0,5.8,0.7,7.4,1.9
		c1.6,1.3,2.4,3.2,2.4,5.8c0,0.9-0.1,1.8-0.3,2.8c-0.1,1-0.4,2-0.7,3.2l-1.7,5.6c-0.7,2.4-1.7,4.7-3.2,6.8c-1.5,2.1-3.5,3.8-6.3,4.9
		c2.6,0.9,3.9,2.9,3.9,6c0,0.8-0.1,1.6-0.2,2.4s-0.4,1.7-0.7,2.7l-3,9.7c-1.4,4.5-3.4,7.9-6,10.2c-2.6,2.3-6.1,3.4-10.6,3.4h-16.8
		c-0.4,0-0.6-0.1-0.4-0.5l11.3-39.7C141.4,119,141.5,118.8,141.7,118.8z M145.7,146.8h2c0.7,0,1.3-0.1,1.8-0.2c0.5-0.1,1-0.5,1.4-1
		c0.4-0.5,0.8-1.3,1.3-2.4s0.9-2.4,1.5-4.1v0.1c0.4-1.5,0.7-2.7,1-3.7c0.2-1,0.3-1.7,0.3-2.3c0-0.7-0.2-1.1-0.6-1.3
		c-0.4-0.1-1-0.3-1.8-0.3h-2.3L145.7,146.8z"/>
	<path class="st0" d="M183.9,93.9h23c0.4,0,0.6,0.1,0.4,0.5l-3.6,11.7c-0.1,0.2-0.3,0.4-0.4,0.4h-11.4l-3.6,12.3h10.6
		c0.4,0,0.6,0.1,0.4,0.5l-3.6,11.7c-0.1,0.2-0.3,0.4-0.4,0.4h-10.9l-4.5,15.2h11.2c0.4,0,0.6,0.1,0.4,0.5L188,159
		c-0.1,0.2-0.3,0.4-0.4,0.4h-23c-0.4,0-0.6-0.1-0.4-0.5l19.4-64.5C183.6,94.1,183.8,93.9,183.9,93.9z"/>
	<path class="st0" d="M142.4,28.7c0.1-0.1,0.1-0.2,0.4-0.2h15.4c0.4,0,0.5,0.1,0.4,0.4l-16.8,56c-0.1,0.2-0.2,0.3-0.4,0.3h-9.2
		c-0.4,0-0.5-0.1-0.4-0.4l12.6-42L126.5,85c-0.1,0.1-0.2,0.2-0.4,0.2h-9.7c-0.4,0-0.5-0.1-0.4-0.4l7.5-42.5l-12.8,42.6
		c-0.1,0.2-0.2,0.3-0.4,0.3h-9.2c-0.4,0-0.5-0.1-0.4-0.4l16.8-56c0.1-0.2,0.2-0.3,0.4-0.3h15.4c0.4,0,0.5,0.1,0.4,0.4l-7.9,40.6
		L142.4,28.7z"/>
	<path class="st0" d="M201.5,45.4h-7.2c-0.1,0-0.1,0-0.2,0.1l-6.4,10.3c-0.1-1-0.1-2.1-0.2-3.2c-0.1-2-0.2-4.3-0.4-6.9
		c0-0.2-0.1-0.3-0.3-0.3h-7.2c-0.2,0-0.3,0.1-0.3,0.3l1,18.7l-13.4,20.3c-0.1,0.3-0.1,0.4,0.2,0.4h7.2c0.1,0,0.1,0,0.2-0.1l6.9-11.3
		l0.1,11.1c0,0.2,0.1,0.3,0.3,0.3h7.2c0.2,0,0.3-0.1,0.3-0.3c-0.1-2.3-0.3-4.4-0.4-6.2c-0.1-1.8-0.2-3.5-0.3-4.9
		c-0.1-1.5-0.2-2.8-0.3-4.1c-0.1-1.3-0.1-2.4-0.2-3.7l0,0l13.4-20.2C201.8,45.5,201.8,45.4,201.5,45.4z"/>
	<path class="st0" d="M155.6,52.7l2.1-7.1c0.1-0.1,0.1-0.2,0.3-0.2h8.4c2.3,0,4.1,0.4,5.3,1s1.8,2,1.8,3.8c0,0.6-0.1,1.3-0.2,2.1
		s-0.4,1.6-0.7,2.6l-6.2,20.7c-0.6,1.8-1.3,3.4-2,4.7s-1.6,2.2-2.5,2.9s-2.1,1.2-3.2,1.5c-1.2,0.3-2.5,0.4-4.1,0.4h-7.2
		c-0.2,0-0.4-0.1-0.3-0.4l2.8-7.2c0-0.1,0.1-0.1,0.2-0.1c0,0,6.9,0,7.2,0c0.4-0.1,0.7-0.4,1-0.9c0.3-0.4,0.7-1.3,1-2.3v0.1
		c1-3.4,1.8-6.1,2.4-8.3c0.7-2.1,1.3-4,1.7-5.4c0.5-1.6,0.9-2.7,1.1-3.6c0.2-0.9,0.4-1.6,0.4-2.2c0-0.1,0.1-0.4,0.1-0.6
		c0-0.7-0.5-1-1.5-1l-7.8-0.1C155.6,53,155.5,52.9,155.6,52.7z"/>
	<path class="st0" d="M208.6,106l3.3-11.7c0.1-0.2,0.3-0.4,0.4-0.4h13.8c3.8,0,6.7,0.6,8.7,1.7c2,1.1,3,3.2,3,6.4
		c0,1-0.1,2.1-0.4,3.4c-0.2,1.3-0.6,2.7-1.1,4.2l-10.2,34.1c-1,3.1-2.1,5.6-3.2,7.6c-1.2,2-2.6,3.6-4.1,4.8c-1.6,1.2-3.3,2-5.3,2.4
		c-1.9,0.4-4.1,0.7-6.6,0.7c-0.1,0-11.7,0-11.8,0c-0.4,0-0.6-0.2-0.4-0.7l4.6-11.8c0-0.1,0.1-0.3,0.4-0.3c0.1,0,11.3,0.1,11.8,0
		c0.7-0.1,1.3-0.7,1.7-1.4c0.5-0.8,1-2.1,1.7-3.8v0.1c1.6-5.5,2.9-10.1,4.1-13.7c1.1-3.5,2.1-6.6,2.8-8.9c0.8-2.5,1.5-4.5,1.8-5.9
		c0.4-1.4,0.7-2.7,0.7-3.6c0.1-0.2,0.1-0.6,0.1-1c0-1.1-0.8-1.7-2.4-1.7l-12.9-0.1C208.6,106.5,208.5,106.3,208.6,106z"/>
</g>
</svg>
